<svg xmlns="http://www.w3.org/2000/svg" viewBox="0 0 32 32"><title>black-analytics</title><g id="BLACK"><g id="analytics"><path d="M30.1,5.31a4.2,4.2,0,0,0-3.4-3.4,64,64,0,0,0-21.39,0,4.2,4.2,0,0,0-3.4,3.4A62.17,62.17,0,0,0,1,16a62.17,62.17,0,0,0,.9,10.69,4.11,4.11,0,0,0,.11.42,1,1,0,0,0,0,.12l.07.19a1,1,0,0,0,0,.09A4.19,4.19,0,0,0,5.31,30.1,62.17,62.17,0,0,0,16,31a62.17,62.17,0,0,0,10.69-.9,4.2,4.2,0,0,0,3.4-3.4A62.17,62.17,0,0,0,31,16,62.17,62.17,0,0,0,30.1,5.31Zm-2,21a2.19,2.19,0,0,1-1.78,1.78c-1.09.19-2.22.34-3.35.47V19a1,1,0,0,0-2,0v9.79c-1.32.1-2.66.16-4,.18V24a1,1,0,0,0-2,0v5c-1.34,0-2.68-.08-4-.18V24a1,1,0,0,0-2,0v4.59c-1.13-.13-2.25-.28-3.35-.47a2.18,2.18,0,0,1-1.48-1L12,16.63l3.19,4A1,1,0,0,0,16,21a1,1,0,0,0,.79-.43L24,10.2V13a1,1,0,0,0,2,0V7a1,1,0,0,0,0-.14s0,0,0-.06a1,1,0,0,0-.12-.31l0-.06a1,1,0,0,0-.23-.25h0a1,1,0,0,0-.4-.16h-.1a1,1,0,0,0-.32,0h-.06l-6,2a1,1,0,1,0,.63,1.9L22.47,8.9l-6.53,9.43-3.16-4A1,1,0,0,0,12,14a1,1,0,0,0-.78.4L3.6,24.54A61.09,61.09,0,0,1,3,16,60.23,60.23,0,0,1,3.87,5.65,2.19,2.19,0,0,1,5.65,3.87,60.23,60.23,0,0,1,16,3a60.23,60.23,0,0,1,10.35.87,2.19,2.19,0,0,1,1.78,1.78A60.23,60.23,0,0,1,29,16,60.23,60.23,0,0,1,28.13,26.35Z"/></g></g></svg>