<svg xmlns="http://www.w3.org/2000/svg" viewBox="0 0 32 32"><title>black-body</title><g id="BLACK"><g id="body"><path d="M19,9V8a3,3,0,0,0-6,0V9a3,3,0,0,0,6,0ZM11.5,21.13a1,1,0,0,0-1.36.37L7.61,25.91A13,13,0,0,1,4.25,10.43a1,1,0,0,0-1.81-.86A15,15,0,0,0,6.6,27.68l-.47.82a1,1,0,1,0,1.74,1l4-7A1,1,0,0,0,11.5,21.13ZM3.5,6.87l7,4a1,1,0,0,0,1-1.74L7.05,6.59a12.95,12.95,0,0,1,17.9,0L20.5,9.13a1,1,0,1,0,1,1.74l7-4a1,1,0,0,0-1-1.74l-.75.43,0-.06a15,15,0,0,0-21.43,0l0,.06L4.5,5.13a1,1,0,0,0-1,1.74ZM31,16a14.86,14.86,0,0,0-1.45-6.43,1,1,0,1,0-1.81.86,13,13,0,0,1-3.36,15.48L21.87,21.5a1,1,0,0,0-1.74,1l4,7a1,1,0,1,0,1.74-1l-.47-.82A14.92,14.92,0,0,0,31,16ZM20.64,28.15c-.25.09-.5.17-.76.25L17,15.88V14.1l8.9.89H26a1,1,0,0,0,.1-2l-10-1h-.2l-10,1a1,1,0,0,0,.2,2L15,14.1v1.78L12.11,28.4c-.25-.08-.51-.15-.75-.25A1,1,0,1,0,10.65,30a15.06,15.06,0,0,0,10.71,0,1,1,0,0,0-.71-1.87Zm-6.58.69L16,20.45l1.94,8.39A13.2,13.2,0,0,1,14.06,28.84ZM17,9a1,1,0,0,1-2,0V8a1,1,0,0,1,2,0Z"/></g></g></svg>