<svg xmlns="http://www.w3.org/2000/svg" viewBox="0 0 32 32"><title>black-locker_1</title><g id="BLACK"><g id="locker2"><path d="M30.09,5a4.09,4.09,0,0,0-3.41-3.21,68.8,68.8,0,0,0-21.36,0A4.09,4.09,0,0,0,1.91,5,53.86,53.86,0,0,0,1,15a53.87,53.87,0,0,0,.91,10,4.05,4.05,0,0,0,3,3.1l-.75,1.5a1,1,0,0,0,1.79.89l1-2s0,0,0-.06A67.62,67.62,0,0,0,16,29a67.64,67.64,0,0,0,9.09-.61s0,0,0,.06l1,2a1,1,0,0,0,1.79-.89l-.75-1.5a4.05,4.05,0,0,0,3-3.1A53.87,53.87,0,0,0,31,15,53.87,53.87,0,0,0,30.09,5ZM24,16H8a1,1,0,0,0,0,2H24a1,1,0,0,0,0-2Zm0-4H8a1,1,0,0,0,0,2H24a1,1,0,0,0,0-2Zm0-4H8a1,1,0,0,0,0,2H24a1,1,0,0,0,0-2ZM8,20a1,1,0,0,0-1,1v2a1,1,0,0,0,2,0V21A1,1,0,0,0,8,20Zm20.13,4.58a2.09,2.09,0,0,1-1.77,1.6,66.9,66.9,0,0,1-20.72,0,2.09,2.09,0,0,1-1.77-1.6A51.9,51.9,0,0,1,3,15a51.9,51.9,0,0,1,.87-9.58,2.09,2.09,0,0,1,1.77-1.6A64.82,64.82,0,0,1,16,3a64.82,64.82,0,0,1,10.36.81,2.09,2.09,0,0,1,1.77,1.6A51.91,51.91,0,0,1,29,15,51.9,51.9,0,0,1,28.13,24.58Z"/></g></g></svg>