<svg xmlns="http://www.w3.org/2000/svg" viewBox="0 0 32 32"><title>black-stopwatch</title><g id="BLACK"><g id="stopwatch"><path d="M28,5.41l1.29,1.29a1,1,0,0,0,1.41-1.41l-4-4a1,1,0,0,0-1.41,1.41L26.59,4l-.73.73a15.05,15.05,0,1,0,1.41,1.41ZM6.15,16a1,1,0,0,0,1-.9A8.91,8.91,0,0,1,19.6,7.86,1,1,0,0,0,20.41,6,10.91,10.91,0,0,0,5.16,14.9,1,1,0,0,0,6.05,16Zm1.37,2.7a1,1,0,1,0-1.91.61,10.94,10.94,0,0,0,2.68,4.4,1,1,0,0,0,1.41-1.41A8.94,8.94,0,0,1,7.52,18.7ZM22.36,8.22l-4.24,4.24a.94.94,0,0,0-.08.12,4.1,4.1,0,0,0-4.87.58,4,4,0,1,0,6.25.78.94.94,0,0,0,.11-.08l4.24-4.24a1,1,0,0,0-1.41-1.41Zm-5,9.19a2,2,0,0,1-2.83,0,2,2,0,1,1,2.83,0ZM12,24a1,1,0,1,0,1,1A1,1,0,0,0,12,24Zm4,5A13,13,0,1,1,29,16,13,13,0,0,1,16,29Z"/></g></g></svg>