<svg xmlns="http://www.w3.org/2000/svg" viewBox="0 0 32 32"><title>black-dumble</title><g id="BLACK"><g id="dumble1"><path d="M25.35,12a9.34,9.34,0,0,0,2.17-6.94A4.5,4.5,0,0,0,23,1H9A4.5,4.5,0,0,0,4.51,5.08,9.56,9.56,0,0,0,6.65,12,13,13,0,0,0,3,21c0,6.45,4.62,10,13,10s13-3.55,13-10A13,13,0,0,0,25.35,12ZM16,25c-4.27,0-6.43-1.54-6.43-4.57a1,1,0,0,0-2,0C7.57,24.6,10.64,27,16,27a1,1,0,0,0,0-2ZM6.5,5.28A2.5,2.5,0,0,1,9,3H23a2.5,2.5,0,0,1,2.49,2.26,7.46,7.46,0,0,1-1.68,5.41,12.91,12.91,0,0,0-15.71,0A7.54,7.54,0,0,1,6.5,5.28ZM16,29c-5,0-11-1.39-11-8a11,11,0,0,1,22,0C27,27.61,21,29,16,29Z"/></g></g></svg>