<svg xmlns="http://www.w3.org/2000/svg" viewBox="0 0 32 32"><title>black-muscle</title><g id="BLACK"><g id="muscle"><path d="M31,14.5A6.5,6.5,0,0,0,18.18,13a7.85,7.85,0,0,0-5.94,2.46l-.77-.66a6.47,6.47,0,0,1-2.08-3.36l-.2-.78,1-.34a3,3,0,0,0,2-2.25l.43-2.13a3,3,0,0,0-2-3.44L8,1.6A3,3,0,0,0,4.33,3.11l-.24.49A19.56,19.56,0,0,0,2.52,16.71l.12.53A26.11,26.11,0,0,0,8.24,28.31l1,1.17a3.47,3.47,0,0,0,2.65,1.22,3.55,3.55,0,0,0,.87-.11L19.2,28.9c4.39-1,6.8-3.81,6.8-7.9,0-.06,0-.12,0-.18A6.53,6.53,0,0,0,31,14.5ZM18,17a4,4,0,0,0-4,4,1,1,0,0,0,2,0,2,2,0,0,1,2-2,1,1,0,0,0,0-2Zm6.84,2-1.07.08.16,1.06A5.94,5.94,0,0,1,24,21c0,3.15-1.77,5.15-5.28,6l-6.46,1.7a1.5,1.5,0,0,1-1.5-.48L9.76,27A24.11,24.11,0,0,1,4.59,16.79l-.12-.53A17.55,17.55,0,0,1,5.87,4.49L6.12,4A1,1,0,0,1,7,3.45a1,1,0,0,1,.31,0L10,4.39a1,1,0,0,1,.67,1.15l-.43,2.13a1,1,0,0,1-.66.75l-2.78.93.64,2.58a8.46,8.46,0,0,0,2.71,4.39l2.36,2,.64-.87A5.94,5.94,0,0,1,18,15a6.09,6.09,0,0,1,.88.07l1.06.16L20,14.16A4.5,4.5,0,1,1,24.84,19Z"/></g></g></svg>