<svg xmlns="http://www.w3.org/2000/svg" viewBox="0 0 32 32"><title>black-book</title><g id="BLACK"><g id="book"><path d="M30.1,5.31a4.2,4.2,0,0,0-3.4-3.4C24.07,1.44,19,1.73,16.55,3.81a4.85,4.85,0,0,0-.55.54,4.85,4.85,0,0,0-.55-.54C13,1.73,7.93,1.44,5.31,1.9a4.2,4.2,0,0,0-3.4,3.4A62.23,62.23,0,0,0,1,16a62.24,62.24,0,0,0,.9,10.69,4.2,4.2,0,0,0,3.4,3.4A62.19,62.19,0,0,0,16,31a62.19,62.19,0,0,0,10.69-.9,4.2,4.2,0,0,0,3.4-3.4A62.23,62.23,0,0,0,31,16,62.24,62.24,0,0,0,30.1,5.31ZM5.84,10l6,1H12a1,1,0,0,0,.16-2l-6-1a1,1,0,1,0-.33,2Zm0,4,6,1H12a1,1,0,0,0,.16-2l-6-1a1,1,0,1,0-.33,2Zm0,4,6,1H12a1,1,0,0,0,.16-2l-6-1a1,1,0,1,0-.33,2ZM20,11h.17l6-1a1,1,0,1,0-.33-2l-6,1A1,1,0,0,0,20,11Zm0,4h.17l6-1a1,1,0,1,0-.33-2l-6,1A1,1,0,0,0,20,15Zm0,4h.17l6-1a1,1,0,1,0-.33-2l-6,1A1,1,0,0,0,20,19ZM17.84,5.35c1.88-1.58,6.22-1.87,8.51-1.47a2.19,2.19,0,0,1,1.78,1.78A60.2,60.2,0,0,1,29,16a61.08,61.08,0,0,1-.59,8.5,5,5,0,0,0-1.71-.6c-2.48-.43-7.1-.2-9.69,1.57V7A2.09,2.09,0,0,1,17.84,5.35Zm-14,.31A2.19,2.19,0,0,1,5.65,3.87c2.29-.4,6.63-.11,8.51,1.47A2.09,2.09,0,0,1,15,7V25.48c-2.6-1.77-7.22-2-9.69-1.58a5,5,0,0,0-1.71.6A61.09,61.09,0,0,1,3,16,60.19,60.19,0,0,1,3.87,5.65Zm.18,21.24c.16-.49.55-.83,1.59-1,2.29-.4,6.63-.11,8.51,1.47A2.09,2.09,0,0,1,15,29a60.08,60.08,0,0,1-9.35-.85A2.18,2.18,0,0,1,4.06,26.89Zm22.29,1.24A60.08,60.08,0,0,1,17,29a2.09,2.09,0,0,1,.84-1.63c1.88-1.58,6.22-1.87,8.51-1.47,1,.18,1.43.53,1.59,1A2.18,2.18,0,0,1,26.35,28.13Z"/></g></g></svg>