<svg xmlns="http://www.w3.org/2000/svg" viewBox="0 0 32 32"><title>black-suplemen</title><g id="BLACK"><g id="suplemen"><path d="M24.71,13.29c-1-1-1.71-1.71-1.71-3.29V8.82A3,3,0,0,0,25,6V4a3,3,0,0,0-3-3H10A3,3,0,0,0,7,4V6A3,3,0,0,0,9,8.82V10c0,1.58-.75,2.33-1.71,3.29A6.2,6.2,0,0,0,5,18v8a5,5,0,0,0,5,5H22a5,5,0,0,0,5-5V18A6.2,6.2,0,0,0,24.71,13.29ZM19,18H14.77l2.09-3.49a1,1,0,1,0-1.71-1l-3,5A1,1,0,0,0,13,20h4.48l-2.4,5.61a1,1,0,0,0,.53,1.31A1,1,0,0,0,16,27a1,1,0,0,0,.92-.61l3-7A1,1,0,0,0,19,18ZM9,4a1,1,0,0,1,1-1H22a1,1,0,0,1,1,1V6a1,1,0,0,1-1,1H10A1,1,0,0,1,9,6ZM25,26a3,3,0,0,1-3,3H10a3,3,0,0,1-3-3V18c0-1.59.75-2.34,1.71-3.3A6.19,6.19,0,0,0,11,10V9H21v1a6.19,6.19,0,0,0,2.29,4.7c1,1,1.71,1.71,1.71,3.3Z"/></g></g></svg>