<svg xmlns="http://www.w3.org/2000/svg" viewBox="0 0 32 32"><title>black-shoe</title><g id="BLACK"><g id="shoe"><path d="M30.93,29.63l-1.31-3.28a5,5,0,0,0-3.06-2.88l-2.82-.94a2,2,0,0,1-1.27-1.27L21,17l.54-2.15a7.5,7.5,0,0,0,0-3.63L21,8.76A1,1,0,0,0,20,8H17.78a2.79,2.79,0,0,1-2.15-1L11.77,2.36a1,1,0,0,0-1.14-.29l-.78.31A18.26,18.26,0,0,0,2.38,7.92L1.22,9.38a1,1,0,0,0,0,1.2L13.69,28.44A6,6,0,0,0,18.6,31H30a1,1,0,0,0,.93-1.37ZM2,23H6a1,1,0,0,0,0-2H2a1,1,0,0,0,0,2Zm7,2H2a1,1,0,0,0,0,2H9a1,1,0,0,0,0-2Zm10.28-7,.67,2H15.51l-1.45-2ZM18.6,29a4,4,0,0,1-3.28-1.71L3.25,10l.7-.87a16.25,16.25,0,0,1,6.64-4.93l.11,0,3.4,4.08A4.79,4.79,0,0,0,17.78,10h1.44l.42,1.67a5.52,5.52,0,0,1,0,2.66L19.22,16H12.6L7.81,9.41a1,1,0,0,0-1.62,1.18l4.86,6.69a1,1,0,0,0,.39.53l2.75,3.78A1,1,0,0,0,15,22h5.63a4,4,0,0,0,2.48,2.42l2.82.94a3,3,0,0,1,1.83,1.73L28.52,29Z"/></g></g></svg>