<svg xmlns="http://www.w3.org/2000/svg" viewBox="0 0 32 32"><title>black-crown</title><g id="BLACK"><g id="crown"><path d="M31,22a60.81,60.81,0,0,0-1.65-10.11C27.53,4,26.75,4,26,4c-1.15,0-1.56,1.31-2.64,4.8-.52,1.68-1.54,5-2.28,6a35.32,35.32,0,0,1-1.6-6C18.35,3.53,17.73,1,16,1s-2.35,2.53-3.48,7.79a35.32,35.32,0,0,1-1.6,6c-.73-1-1.76-4.3-2.28-6C7.56,5.31,7.15,4,6,4c-.75,0-1.53,0-3.35,7.89A60.81,60.81,0,0,0,1,22c0,.28,0,.56,0,.83A1,1,0,0,0,1,23a1,1,0,0,0,.1.41c.46,3.47,2.49,6.38,4.21,6.68A62.17,62.17,0,0,0,16,31a62.17,62.17,0,0,0,10.69-.9c1.72-.3,3.76-3.21,4.21-6.68A1,1,0,0,0,31,23a1,1,0,0,0,0-.17C31,22.56,31,22.28,31,22ZM17.57,19.72a2.14,2.14,0,0,0-3.14,0l-1.75,2.1a1.82,1.82,0,0,0,0,2.36l1.75,2.1a2.07,2.07,0,0,0,3.14,0l1.75-2.1a1.82,1.82,0,0,0,0-2.36ZM16,25,14.3,23,16,21H16l1.66,2Zm6-1h6.77c-.54,2.38-1.88,4-2.42,4.13a62.08,62.08,0,0,1-20.7,0C5.11,28,3.76,26.38,3.23,24H10a1,1,0,0,0,0-2H3C3,19,4.85,10.53,6,7.11c.24.71.51,1.56.73,2.28C8.19,14.11,9.18,17,11,17s2.35-2.53,3.48-7.79A40,40,0,0,1,16,3.38a40,40,0,0,1,1.52,5.83C18.65,14.47,19.27,17,21,17s2.81-2.89,4.27-7.6c.22-.72.49-1.57.73-2.28C27.15,10.53,29,19,29,22H22a1,1,0,0,0,0,2Z"/></g></g></svg>