<svg xmlns="http://www.w3.org/2000/svg" viewBox="0 0 32 32"><title>black-scale</title><g id="BLACK"><g id="scale"><path d="M30.1,5.31a4.2,4.2,0,0,0-3.4-3.4,64,64,0,0,0-21.39,0,4.2,4.2,0,0,0-3.4,3.4A62.17,62.17,0,0,0,1,16a62.17,62.17,0,0,0,.9,10.69,4.2,4.2,0,0,0,3.4,3.4A62.17,62.17,0,0,0,16,31a62.17,62.17,0,0,0,10.69-.9,4.2,4.2,0,0,0,3.4-3.4A62.17,62.17,0,0,0,31,16,62.17,62.17,0,0,0,30.1,5.31ZM16,5A11,11,0,0,0,5,16c0,2.43,2.58,4.18,7.1,4.86a4,4,0,0,0,7.8,0C24.42,20.18,27,18.43,27,16A11,11,0,0,0,16,5Zm0,17a2,2,0,1,1,2-2A2,2,0,0,1,16,22Zm3.81-3.15A4,4,0,0,0,17,16.13.94.94,0,0,0,17,16V10a1,1,0,0,0-2,0v6a.94.94,0,0,0,0,.13,4,4,0,0,0-2.84,2.71C9.05,18.34,7,17.24,7,16a9,9,0,0,1,18,0C25,17.24,22.95,18.34,19.81,18.85Zm8.32,7.5a2.19,2.19,0,0,1-1.78,1.78,62.08,62.08,0,0,1-20.7,0,2.19,2.19,0,0,1-1.78-1.78A60.23,60.23,0,0,1,3,16,60.23,60.23,0,0,1,3.87,5.65,2.19,2.19,0,0,1,5.65,3.87,60.23,60.23,0,0,1,16,3a60.23,60.23,0,0,1,10.35.87,2.19,2.19,0,0,1,1.78,1.78A60.23,60.23,0,0,1,29,16,60.23,60.23,0,0,1,28.13,26.35Z"/></g></g></svg>