<svg xmlns="http://www.w3.org/2000/svg" viewBox="0 0 32 32"><title>black-yoga</title><g id="BLACK"><g id="yoga"><path d="M29,22c-.05,0-5.23-.05-6-3.24C22,14.94,20,13,17,13V10.9a5,5,0,1,0-2,0V13c-2.07,0-4.78,1-6,5.76-.8,3.19-6,3.24-6,3.24a1,1,0,0,0,0,2c.28,0,6.79-.05,8-4.76.71-2.85,2-4.24,4-4.24V27.22L6.24,25A1,1,0,1,0,5.76,27l16,4A1,1,0,0,0,22.24,29l-2.12-.53L26.24,27A1,1,0,1,0,25.76,25L17,27.22V15c1.27,0,3.08.44,4,4.24,1.18,4.7,7.69,4.76,8,4.76a1,1,0,0,0,0-2ZM10.76,28.78l-1,.25A1,1,0,1,0,10.24,31l1-.25a1,1,0,1,0-.48-1.94ZM13,6a3,3,0,1,1,3,3A3,3,0,0,1,13,6Z"/></g></g></svg>