<svg xmlns="http://www.w3.org/2000/svg" viewBox="0 0 32 32"><title>black-whistle</title><g id="BLACK"><g id="whistle"><path d="M29.86,7.49l-3-5a1,1,0,0,0-1.22-.42l-18,7A10.74,10.74,0,0,0,1.07,20.26a11,11,0,0,0,9.12,9.59A11.3,11.3,0,0,0,12,30a11,11,0,0,0,8.83-4.4,10.12,10.12,0,0,0,1.68-7.84,3,3,0,0,1,.83-2.65l6.39-6.39A1,1,0,0,0,29.86,7.49ZM12,14a5,5,0,1,0,5,5A5,5,0,0,0,12,14Zm0,8a3,3,0,1,1,3-3A3,3,0,0,1,12,22Zm9.9-8.31a5.05,5.05,0,0,0-1.39,4.4A8.17,8.17,0,0,1,19.2,24.4,9,9,0,0,1,3.06,20a8.76,8.76,0,0,1,5.3-9.11l3-1.16,1.94,1.94a1,1,0,0,0,1.41-1.41L13.39,9,25.58,4.24l2.16,3.61Z"/></g></g></svg>