<svg xmlns="http://www.w3.org/2000/svg" viewBox="0 0 32 32"><title>black-apple</title><g id="BLACK"><g id="apple"><path d="M22.64,4.47a6.64,6.64,0,0,0-5.53.62,3,3,0,0,1,1.34-2.19,1,1,0,1,0-.89-1.79,5.2,5.2,0,0,0-2.49,4.07l-.76-.51A4.23,4.23,0,0,0,11.38,4,9.5,9.5,0,0,0,4.45,8.47,13.45,13.45,0,0,0,3.08,19.29C4.69,25,9,28.48,11.51,29.41a2.93,2.93,0,0,0,2.67,0l1.26-.84a1,1,0,0,1,1.11,0l1.35.9a2.05,2.05,0,0,0,1.16.32,4.31,4.31,0,0,0,1.49-.3c2.47-.92,6.73-4.37,8.32-10.11v0C30.61,14,28.47,6.55,22.64,4.47Zm-12,3.6c-.06,0-5.81,2.43-3.59,10.2A1,1,0,0,0,8,19a1,1,0,0,0,.28,0A1,1,0,0,0,9,17.73c-1.71-6,2.23-7.72,2.42-7.8a1,1,0,0,0-.75-1.85ZM27,18.73l0,.08v0a14.18,14.18,0,0,1-6.25,8.38,3.64,3.64,0,0,1-1.68.59l-1.35-.9a3,3,0,0,0-3.33,0l-1.2.81c-1,.3-6.37-2.71-8.13-9A11.56,11.56,0,0,1,6.15,9.53,7.57,7.57,0,0,1,11.65,6a2.24,2.24,0,0,1,1.55.37l1,.64a3.3,3.3,0,0,0,3.67,0A4.69,4.69,0,0,1,22,6.36C27.17,8.2,28.23,14.84,27,18.73Z"/></g></g></svg>