<svg xmlns="http://www.w3.org/2000/svg" viewBox="0 0 32 32"><title>black-abs</title><g id="BLACK"><g id="abs"><path d="M30.1,5.31a4.2,4.2,0,0,0-3.4-3.4,64.12,64.12,0,0,0-21.39,0h0a4.2,4.2,0,0,0-3.4,3.4A62.19,62.19,0,0,0,1,16a62.19,62.19,0,0,0,.9,10.69,4.2,4.2,0,0,0,3.4,3.4A62.23,62.23,0,0,0,16,31a62.24,62.24,0,0,0,10.69-.9,4.2,4.2,0,0,0,3.4-3.4A62.19,62.19,0,0,0,31,16,62.19,62.19,0,0,0,30.1,5.31ZM16,22a1,1,0,1,0-1-1A1,1,0,0,0,16,22Zm4.55,2.11A11.14,11.14,0,0,1,16,25a11.33,11.33,0,0,1-4.56-.9,1,1,0,0,0-.89,1.79A13.11,13.11,0,0,0,16,27a13.11,13.11,0,0,0,5.45-1.11,1,1,0,1,0-.89-1.79ZM25,3.67,25,6a6.51,6.51,0,0,1-1.2,3.65C22.67,9,20.27,8,16,8S9.32,9,8.17,9.65A6.44,6.44,0,0,1,7,6L7,3.67A62.48,62.48,0,0,1,25,3.67ZM3,16A60.23,60.23,0,0,1,3.87,5.65,2.19,2.19,0,0,1,5,4.11L5,6A8.66,8.66,0,0,0,7.1,11.54l1.11,2.93,0,.1a6.32,6.32,0,0,1-.42,6.49A28.17,28.17,0,0,0,5,26.27l-.52,1.25a2.18,2.18,0,0,1-.62-1.18A60.23,60.23,0,0,1,3,16ZM6.37,28.23,6.86,27a26.21,26.21,0,0,1,2.63-4.85,8.31,8.31,0,0,0,.57-8.49l-.88-2.32C10,10.89,12.1,10,16,10s6,.89,6.82,1.39l-.88,2.32a8.31,8.31,0,0,0,.57,8.49A26.21,26.21,0,0,1,25.14,27l.49,1.2A62.27,62.27,0,0,1,6.37,28.23Zm21.76-1.89a2.19,2.19,0,0,1-.62,1.18L27,26.27a28.17,28.17,0,0,0-2.83-5.22,6.32,6.32,0,0,1-.42-6.49l1.16-3A8.68,8.68,0,0,0,27,6l0-1.88a2.19,2.19,0,0,1,1.12,1.54A60.23,60.23,0,0,1,29,16,60.23,60.23,0,0,1,28.13,26.35Z"/></g></g></svg>