<svg xmlns="http://www.w3.org/2000/svg" viewBox="0 0 32 32"><title>black-video</title><g id="BLACK"><g id="video"><path d="M30.09,4.52a3.87,3.87,0,0,0-3.43-2.81,81,81,0,0,0-21.32,0A3.87,3.87,0,0,0,1.91,4.52,39,39,0,0,0,1,13a39,39,0,0,0,.91,8.48,3.87,3.87,0,0,0,3.43,2.81l.49.06L4.05,29.68a1,1,0,1,0,1.9.63L6.39,29H25.61l.44,1.32a1,1,0,1,0,1.9-.63l-1.78-5.33.49-.06a3.87,3.87,0,0,0,3.43-2.81A39,39,0,0,0,31,13,39,39,0,0,0,30.09,4.52Zm-8.3,6.22-6.62-4.3A2.7,2.7,0,0,0,11,8.7v8.6a2.7,2.7,0,0,0,4.16,2.26l6.62-4.3a2.72,2.72,0,0,0,0-4.53ZM20.7,13.59l-6.62,4.3a.68.68,0,0,1-.71,0A.68.68,0,0,1,13,17.3V8.7a.68.68,0,0,1,.37-.62A.72.72,0,0,1,13.7,8a.67.67,0,0,1,.37.12l6.62,4.3a.72.72,0,0,1,0,1.17ZM24.95,27H7.05l.8-2.41A80.19,80.19,0,0,0,16,25a80.29,80.29,0,0,0,8.14-.41Zm3.19-6a2,2,0,0,1-1.75,1.26,78.92,78.92,0,0,1-20.77,0A2,2,0,0,1,3.86,21,37.12,37.12,0,0,1,3,13a37.12,37.12,0,0,1,.86-8A2,2,0,0,1,5.61,3.69h0A76.41,76.41,0,0,1,16,3a76.28,76.28,0,0,1,10.39.69A2,2,0,0,1,28.14,5,37.12,37.12,0,0,1,29,13,37.12,37.12,0,0,1,28.14,21Z"/></g></g></svg>