<svg xmlns="http://www.w3.org/2000/svg" viewBox="0 0 32 32"><title>black-locker</title><g id="BLACK"><g id="locker1"><path d="M30.1,5.31a4.2,4.2,0,0,0-3.4-3.4,64,64,0,0,0-21.39,0,4.2,4.2,0,0,0-3.4,3.4A62.23,62.23,0,0,0,1,16a62.25,62.25,0,0,0,.9,10.69,4.2,4.2,0,0,0,3.4,3.4A62.25,62.25,0,0,0,16,31a62.25,62.25,0,0,0,10.69-.9,4.2,4.2,0,0,0,3.4-3.4A62.25,62.25,0,0,0,31,16,62.24,62.24,0,0,0,30.1,5.31Zm-2,21a2.19,2.19,0,0,1-1.78,1.78,62.08,62.08,0,0,1-20.7,0,2.19,2.19,0,0,1-1.78-1.78A60.2,60.2,0,0,1,3,16,60.19,60.19,0,0,1,3.87,5.65,2.19,2.19,0,0,1,5.65,3.87,60.23,60.23,0,0,1,16,3a60.23,60.23,0,0,1,10.35.87,2.19,2.19,0,0,1,1.78,1.78A60.2,60.2,0,0,1,29,16,60.2,60.2,0,0,1,28.13,26.35ZM27,12h-.19c-.11-1.25-.25-2.49-.46-3.69a3.29,3.29,0,0,0-2.66-2.66,46,46,0,0,0-15.37,0A3.29,3.29,0,0,0,5.65,8.31,44.7,44.7,0,0,0,5,16a44.66,44.66,0,0,0,.65,7.69,3.28,3.28,0,0,0,2.66,2.66A44.68,44.68,0,0,0,16,27a44.66,44.66,0,0,0,7.69-.65,3.28,3.28,0,0,0,2.66-2.66q.13-.76.24-1.55a1,1,0,1,0-2-.27q-.1.75-.23,1.48a1.28,1.28,0,0,1-1,1,44,44,0,0,1-14.68,0,1.28,1.28,0,0,1-1-1A42.64,42.64,0,0,1,7,16a42.66,42.66,0,0,1,.62-7.34,1.28,1.28,0,0,1,1-1,44.06,44.06,0,0,1,14.68,0,1.28,1.28,0,0,1,1,1c.19,1.09.32,2.21.43,3.34H23a1,1,0,0,0,0,2h4a1,1,0,0,0,0-2Zm0,6h-.07c0-.67.07-1.33.07-2a1,1,0,0,0-2,0c0,.67,0,1.33-.07,2H23a1,1,0,0,0,0,2h4a1,1,0,0,0,0-2ZM9,15v2a1,1,0,0,0,2,0V15a1,1,0,0,0-2,0Z"/></g></g></svg>