<svg xmlns="http://www.w3.org/2000/svg" viewBox="0 0 32 32"><title>black-clipboard</title><g id="BLACK"><g id="clipboard"><path d="M30.1,5.31a4.2,4.2,0,0,0-3.4-3.4,64.13,64.13,0,0,0-21.39,0,4.2,4.2,0,0,0-3.4,3.4A62.25,62.25,0,0,0,1,16a62.25,62.25,0,0,0,.9,10.69,4.2,4.2,0,0,0,3.4,3.4A62.25,62.25,0,0,0,16,31a62.25,62.25,0,0,0,10.69-.9,4.2,4.2,0,0,0,3.4-3.4A62.25,62.25,0,0,0,31,16,62.25,62.25,0,0,0,30.1,5.31ZM10,22H22a1,1,0,0,0,0-2H10a1,1,0,0,0,0,2Zm7-4h5a1,1,0,0,0,0-2H17a1,1,0,0,0,0,2Zm2-4h3a1,1,0,0,0,0-2H19a1,1,0,0,0,0,2Zm-7.71,3.71A1,1,0,0,0,12,18h.07a1,1,0,0,0,.73-.4l3-4a1,1,0,1,0-1.6-1.2l-2.31,3.08-1.18-1.18a1,1,0,0,0-1.41,1.41ZM11.18,7A3,3,0,0,0,14,9h4a3,3,0,0,0,2.81-2H23a2,2,0,0,1,2,2V23a2,2,0,0,1-2,2H9a2,2,0,0,1-2-2V9A2,2,0,0,1,9,7ZM19,3.08V6a1,1,0,0,1-1,1H14a1,1,0,0,1-1-1V3.08C15,3,17,3,19,3.08Zm9.13,23.27a2.19,2.19,0,0,1-1.78,1.78,62.08,62.08,0,0,1-20.7,0,2.19,2.19,0,0,1-1.78-1.78A60.2,60.2,0,0,1,3,16,60.2,60.2,0,0,1,3.87,5.65,2.19,2.19,0,0,1,5.65,3.87c1.73-.3,3.53-.52,5.35-.67V5H9A4,4,0,0,0,5,9V23a4,4,0,0,0,4,4H23a4,4,0,0,0,4-4V9a4,4,0,0,0-4-4H21V3.21c1.82.14,3.61.36,5.35.67a2.19,2.19,0,0,1,1.78,1.78A60.2,60.2,0,0,1,29,16,60.2,60.2,0,0,1,28.13,26.35Z"/></g></g></svg>