<svg xmlns="http://www.w3.org/2000/svg" viewBox="0 0 32 32"><title>black-exercise</title><g id="BLACK"><g id="exercise"><path d="M30,1H26a1,1,0,0,0-.94.66L21.21,12.25,11.35,16.4a11.11,11.11,0,0,0-1.84,1L6.39,8H9A1,1,0,0,0,9,6H2A1,1,0,0,0,2,8H4.28L7.86,18.73A11.3,11.3,0,0,0,5.05,30.32,1,1,0,0,0,6,31H25a1,1,0,0,0,1-.76l2-8a7.54,7.54,0,0,0-2.47-7.58l-2.33-1.94L26.7,3H30a1,1,0,0,0,0-2ZM18,18a1,1,0,0,0,1,1h0l-1.33,1.78A3.46,3.46,0,0,0,15.5,20,3.5,3.5,0,1,0,19,23.5a3.45,3.45,0,0,0-.15-1L21.5,19H23a1,1,0,0,0,0-2H19A1,1,0,0,0,18,18Zm-2.5,7A1.5,1.5,0,1,1,17,23.5,1.5,1.5,0,0,1,15.5,25ZM26,21.71,24.22,29H6.75a9.29,9.29,0,0,1,5.38-10.76l9.7-4.08,2.4,2A5.53,5.53,0,0,1,26,21.71Z"/></g></g></svg>