<svg xmlns="http://www.w3.org/2000/svg" viewBox="0 0 32 32"><title>black-group</title><g id="BLACK"><g id="group"><path d="M31,21a9.79,9.79,0,0,0-5.82-8.61A7.11,7.11,0,0,0,26.71,8c0-3.86-2.82-7-6.28-7a6.38,6.38,0,0,0-6,5A6.78,6.78,0,0,0,8,13a7.3,7.3,0,0,0,1.48,4.45C6,18.87,2,22.38,2,26c0,4.79,12.3,5,12.42,5S27,30.79,27,26c0,0,0-.08,0-.12A5.32,5.32,0,0,0,31,21ZM20.42,3c2.36,0,4.28,2.24,4.28,5A5.09,5.09,0,0,1,21,12.87a7,7,0,0,0-4.6-6.56A4.36,4.36,0,0,1,20.42,3ZM14.5,8A4.78,4.78,0,0,1,19,13a4.78,4.78,0,0,1-4.5,5A4.78,4.78,0,0,1,10,13,4.78,4.78,0,0,1,14.5,8Zm-.08,21C9.83,29,4,27.59,4,26c0-2.68,3.91-6.09,7.13-7a6,6,0,0,0,6.68,0C21.09,20,25,23.37,25,26,25,27.59,19.09,29,14.42,29Zm12.14-5.07c-1.13-2.78-4.29-5.26-7.08-6.44A7.18,7.18,0,0,0,20.74,15a6.44,6.44,0,0,0,2.81-1.06.94.94,0,0,0,.13.06A7.75,7.75,0,0,1,29,21,3.35,3.35,0,0,1,26.56,23.93Z"/></g></g></svg>