<svg xmlns="http://www.w3.org/2000/svg" viewBox="0 0 32 32"><title>black-dumble_1</title><g id="BLACK"><g id="dumble2"><path d="M30,11.38A25.05,25.05,0,0,0,26.56,6.8a1,1,0,0,0,.15-.1l1-1a1,1,0,0,0-1.41-1.41l-1,1a1,1,0,0,0-.1.15A25.07,25.07,0,0,0,20.62,2a2.94,2.94,0,0,0-3.06.08,12.31,12.31,0,0,0-3.48,3.48A2.94,2.94,0,0,0,14,8.6a25,25,0,0,0,3.43,4.55l-4.29,4.28A25.05,25.05,0,0,0,8.6,14a2.94,2.94,0,0,0-3.06.08,12.29,12.29,0,0,0-3.48,3.48A2.94,2.94,0,0,0,2,20.63,25.06,25.06,0,0,0,5.44,25.2a1,1,0,0,0-.15.1l-1,1a1,1,0,1,0,1.41,1.41l1-1a1,1,0,0,0,.1-.15A25.13,25.13,0,0,0,11.38,30a3,3,0,0,0,1.48.39,2.87,2.87,0,0,0,1.58-.47,12.33,12.33,0,0,0,3.48-3.48A2.91,2.91,0,0,0,18,23.4a25,25,0,0,0-3.43-4.55l4.29-4.28A25.07,25.07,0,0,0,23.4,18a3,3,0,0,0,1.48.39,2.87,2.87,0,0,0,1.58-.47,12.3,12.3,0,0,0,3.48-3.48A2.94,2.94,0,0,0,30,11.38Zm-13.76,14a10.31,10.31,0,0,1-2.92,2.92.92.92,0,0,1-1,0,23.7,23.7,0,0,1-4.85-3.79,23.76,23.76,0,0,1-3.79-4.85.93.93,0,0,1,0-1h0a10.3,10.3,0,0,1,2.92-2.92.87.87,0,0,1,.48-.14,1,1,0,0,1,.49.13,23.76,23.76,0,0,1,4.85,3.79,23.71,23.71,0,0,1,3.79,4.86A.93.93,0,0,1,16.25,25.35Zm12-12a10.3,10.3,0,0,1-2.92,2.92.93.93,0,0,1-1,0,23.73,23.73,0,0,1-4.85-3.79,23.72,23.72,0,0,1-3.79-4.85.93.93,0,0,1,0-1,10.32,10.32,0,0,1,2.92-2.92.86.86,0,0,1,.48-.14,1,1,0,0,1,.49.13,23.76,23.76,0,0,1,4.85,3.79,23.74,23.74,0,0,1,3.79,4.85A.93.93,0,0,1,28.27,13.33Z"/></g></g></svg>