<svg xmlns="http://www.w3.org/2000/svg" viewBox="0 0 32 32"><title>black-speaker</title><g id="BLACK"><g id="speaker"><path d="M20.47,5.12a1,1,0,0,0-1,0L12.21,10a6,6,0,0,1-3.33,1H7A5,5,0,0,0,7,21h.38l3.72,7.45a1,1,0,0,0,1.79-.89l-3.25-6.5a6,6,0,0,1,2.56,1l7.24,4.82A1,1,0,0,0,21,26V6A1,1,0,0,0,20.47,5.12Zm3.15,5a1,1,0,0,0-.54,1.31,12,12,0,0,1,0,9.23,1,1,0,1,0,1.85.77,14,14,0,0,0,0-10.77A1,1,0,0,0,23.62,10.08ZM27.9,6.57a1,1,0,1,0-1.8.86A19.74,19.74,0,0,1,28,16a19.74,19.74,0,0,1-1.9,8.57,1,1,0,1,0,1.8.86A21.73,21.73,0,0,0,30,16,21.73,21.73,0,0,0,27.9,6.57ZM4,16a3,3,0,0,1,3-3v6A3,3,0,0,1,4,16Zm15,8.13-5.68-3.79A8,8,0,0,0,9,19V13a8,8,0,0,0,4.32-1.33L19,7.87Z"/></g></g></svg>