<svg xmlns="http://www.w3.org/2000/svg" viewBox="0 0 32 32"><title>black-skipping rope</title><g id="BLACK"><g id="skipping_rope" data-name="skipping rope"><path d="M17,9h9a4,4,0,0,0,0-8H9A7,7,0,0,0,2,8V9a6,6,0,0,0,6,6,2,2,0,0,1,2,2v2H9a1,1,0,0,0-.93.63,14.4,14.4,0,0,0,0,10.74A1,1,0,0,0,9,31h4a1,1,0,0,0,.93-.63,14.4,14.4,0,0,0,0-10.74A1,1,0,0,0,13,19H12V17a4,4,0,0,0-4-4A4,4,0,0,1,4,9V8A5,5,0,0,1,9,3H26a2,2,0,0,1,0,4H17a4,4,0,0,0,0,8h3a2,2,0,0,1,2,2v2H21a1,1,0,0,0-.93.63,14.4,14.4,0,0,0,0,10.74A1,1,0,0,0,21,31h4a1,1,0,0,0,.93-.63,14.4,14.4,0,0,0,0-10.74A1,1,0,0,0,25,19H24V17a4,4,0,0,0-4-4H17a2,2,0,0,1,0-4ZM12.3,29H9.7a12.39,12.39,0,0,1,0-8H12.3A12.39,12.39,0,0,1,12.3,29Zm12,0H21.7a12.39,12.39,0,0,1,0-8H24.3A12.39,12.39,0,0,1,24.3,29Z"/></g></g></svg>